<svg width="63" height="79" viewBox="0 0 63 79" fill="none" xmlns="http://www.w3.org/2000/svg">
<g id="icon/pin">
<path id="Fill 1" opacity="0.306338" fill-rule="evenodd" clip-rule="evenodd" d="M31.5063 74.7727H31.4874C30.9414 74.7727 30.4079 74.6242 29.9497 74.342C29.6578 74.1608 27.7654 72.9755 25.0853 71C19.7346 71.6625 16 73.1121 16 74.8084C16 77.1225 22.9388 79 31.5 79C40.0581 79 47 77.1225 47 74.8084C47 73.1121 43.2623 71.6595 37.9084 71C35.2314 72.9755 33.3359 74.1608 33.044 74.342C32.5858 74.6242 32.0523 74.7727 31.5063 74.7727Z" fill="#1C366B"/>
<path id="Combined Shape" fill-rule="evenodd" clip-rule="evenodd" d="M31.3422 68.4942C33.7582 66.7751 38.6754 63.0374 43.5673 58.0173C50.3178 51.0878 57.0178 41.6997 57.0178 31.6689C57.0178 17.6351 45.5046 6.21591 31.3422 6.19095C17.1829 6.21591 5.67284 17.6351 5.67284 31.6689C5.67284 41.7122 12.3634 51.094 19.1076 58.0173C23.9995 63.0374 28.9261 66.7751 31.3422 68.4942ZM31.3422 0.574951H31.4335C48.6798 0.649831 62.6878 14.5682 62.6878 31.6689C62.6878 41.6497 57.3801 50.782 51.2439 58.0173C46.5693 63.5303 41.4379 67.9233 37.7776 70.75C35.0938 72.8248 33.1881 74.0728 32.8951 74.26C32.4352 74.5564 31.8997 74.7124 31.3516 74.7124H31.3327C30.7846 74.7124 30.2491 74.5564 29.7892 74.26C29.4963 74.0728 27.5968 72.8248 24.9067 70.75C21.2464 67.9233 16.1182 63.5303 11.4468 58.0173C5.31059 50.782 -0.000305176 41.6497 -0.000305176 31.6689C-0.000305176 14.5682 14.0046 0.649831 31.2508 0.574951H31.3422ZM26.4445 23.5C26.4445 26.2876 28.7125 28.5556 31.5 28.5556C34.2876 28.5556 36.5556 26.2876 36.5556 23.5C36.5556 20.7125 34.2876 18.4445 31.5 18.4445C28.7125 18.4445 26.4445 20.7125 26.4445 23.5ZM21 23.5C21 17.7102 25.7102 13 31.5 13C37.2898 13 42 17.7102 42 23.5C42 29.2898 37.2898 34 31.5 34C25.7102 34 21 29.2898 21 23.5Z" fill="#15356F"/>
</g>
</svg>
